<svg width="1320" height="525" viewBox="0 0 1320 525" fill="none" xmlns="http://www.w3.org/2000/svg">
<line y1="85.5" x2="1320" y2="85.5" stroke="black" stroke-opacity="0.04"/>
<line y1="173.5" x2="1320" y2="173.5" stroke="black" stroke-opacity="0.04"/>
<line y1="261.5" x2="1320" y2="261.5" stroke="black" stroke-opacity="0.04"/>
<line y1="349.5" x2="1320" y2="349.5" stroke="black" stroke-opacity="0.04"/>
<line y1="437.5" x2="1320" y2="437.5" stroke="black" stroke-opacity="0.04"/>
<line x1="88.5" y1="-2.29006e-08" x2="88.5" y2="526" stroke="black" stroke-opacity="0.04"/>
<line x1="176.5" y1="-2.29006e-08" x2="176.5" y2="526" stroke="black" stroke-opacity="0.04"/>
<line x1="264.5" y1="-2.29006e-08" x2="264.5" y2="526" stroke="black" stroke-opacity="0.04"/>
<line x1="352.5" y1="-2.29006e-08" x2="352.5" y2="526" stroke="black" stroke-opacity="0.04"/>
<line x1="440.5" y1="-2.29006e-08" x2="440.5" y2="526" stroke="black" stroke-opacity="0.04"/>
<line x1="528.5" y1="-2.29006e-08" x2="528.5" y2="526" stroke="black" stroke-opacity="0.04"/>
<line x1="616.5" y1="-2.29006e-08" x2="616.5" y2="526" stroke="black" stroke-opacity="0.04"/>
<line x1="704.5" y1="-2.29006e-08" x2="704.5" y2="526" stroke="black" stroke-opacity="0.04"/>
<line x1="792.5" y1="-2.29006e-08" x2="792.5" y2="526" stroke="black" stroke-opacity="0.04"/>
<line x1="880.5" y1="-2.29006e-08" x2="880.5" y2="526" stroke="black" stroke-opacity="0.04"/>
<line x1="968.5" y1="-2.29006e-08" x2="968.5" y2="526" stroke="black" stroke-opacity="0.04"/>
<line x1="1056.5" y1="-2.29006e-08" x2="1056.5" y2="526" stroke="black" stroke-opacity="0.04"/>
<line x1="1144.5" y1="-2.29006e-08" x2="1144.5" y2="526" stroke="black" stroke-opacity="0.04"/>
<line x1="1232.5" y1="-2.29006e-08" x2="1232.5" y2="526" stroke="black" stroke-opacity="0.04"/>
</svg>
