<svg width="277" height="182" viewBox="0 0 277 182" fill="none" xmlns="http://www.w3.org/2000/svg">
<path d="M53.788 161.172C82.6897 168.347 112.31 153.069 119.815 127.114C123.405 114.703 121.459 101.668 114.338 90.4108C107.232 79.1785 95.7742 70.9741 82.0736 67.3079L81.6761 67.1995C76.8856 65.8702 71.8852 68.3132 70.5068 72.6133C69.1285 76.9133 71.8951 81.4612 76.6855 82.7716L77.1658 82.9026C95.9566 87.9192 107.251 105.808 102.344 122.777C97.3399 140.08 77.5932 150.265 58.3254 145.482C39.0576 140.698 27.453 122.729 32.4569 105.426C38.707 83.814 50.1981 65.2922 66.6123 50.3752C78.88 39.2256 89.4835 34.36 89.6813 34.2703C94.1091 32.2951 95.8774 27.4336 93.6292 23.3998C92.4106 21.2143 90.2623 19.7186 87.8429 19.1179C85.7894 18.6085 83.5403 18.743 81.4991 19.6467C80.9798 19.8769 68.6179 25.4242 54.3152 38.2635C41.2762 49.9679 23.8691 70.3691 14.9852 101.089C7.47926 127.044 24.8863 153.996 53.788 161.172Z" fill="black" fill-opacity="0.04"/>
<path d="M182.538 161.257C211.44 168.432 241.06 153.154 248.565 127.199C252.155 114.788 250.209 101.753 243.088 90.4947C235.982 79.2624 224.524 71.0584 210.824 67.3918L210.426 67.2834C205.646 65.9567 200.635 68.3971 199.257 72.6972C197.879 76.9972 200.645 81.5451 205.436 82.8555L205.916 82.9865C224.707 88.0039 236.001 105.892 231.094 122.862C226.09 140.165 206.343 150.35 187.075 145.567C167.808 140.783 156.203 122.814 161.207 105.511C167.457 83.8988 178.948 65.3769 195.362 50.4602C207.63 39.3106 218.234 34.445 218.431 34.3553C222.86 32.3798 224.627 27.5185 222.379 23.4848C221.161 21.2988 219.012 19.8035 216.593 19.2029C214.54 18.6931 212.29 18.8276 210.249 19.7312C209.73 19.9614 197.368 25.5087 183.065 38.3481C170.026 50.0526 152.619 70.4535 143.735 101.173C136.229 127.128 153.636 154.081 182.538 161.257Z" fill="black" fill-opacity="0.04"/>
</svg>
