<svg width="109" height="107" viewBox="0 0 109 107" fill="none" xmlns="http://www.w3.org/2000/svg">
<path d="M63.3231 106.387C62.2748 106.387 61.2551 106.046 60.4183 105.414C59.5815 104.783 58.9731 103.896 58.6852 102.888L53.6743 85.3472C51.5202 77.7156 47.4448 70.7641 41.8375 65.1569C36.2302 59.5498 29.2784 55.4745 21.6467 53.3205L4.10519 48.3097C3.09789 48.0211 2.21192 47.4125 1.58121 46.5757C0.950513 45.739 0.609375 44.7197 0.609375 43.6719C0.609375 42.6241 0.950513 41.6048 1.58121 40.7681C2.21192 39.9314 3.09789 39.3228 4.10519 39.0342L21.6467 34.0234C29.2784 31.8694 36.2302 27.7941 41.8375 22.1869C47.4448 16.5798 51.5202 9.62824 53.6743 1.99671L58.6852 -15.5443C58.9738 -16.5516 59.5824 -17.4375 60.4192 -18.0682C61.2559 -18.6989 62.2753 -19.04 63.3231 -19.04C64.3709 -19.04 65.3902 -18.6989 66.227 -18.0682C67.0637 -17.4375 67.6724 -16.5516 67.9609 -15.5443L72.9719 1.99671C75.1259 9.62824 79.2014 16.5798 84.8087 22.1869C90.416 27.7941 97.3677 31.8694 104.999 34.0234L122.541 39.0342C123.548 39.3228 124.434 39.9314 125.065 40.7681C125.696 41.6048 126.037 42.6241 126.037 43.6719C126.037 44.7197 125.696 45.739 125.065 46.5757C124.434 47.4125 123.548 48.0211 122.541 48.3097L104.999 53.3205C97.3677 55.4745 90.416 59.5498 84.8087 65.1569C79.2014 70.7641 75.1259 77.7156 72.9719 85.3472L67.9609 102.888C67.673 103.896 67.0646 104.783 66.2278 105.414C65.391 106.046 64.3713 106.387 63.3231 106.387ZM22.9911 43.6719L24.2776 44.045C33.4879 46.6451 41.8774 51.5637 48.6446 58.3307C55.4118 65.0977 60.3305 73.487 62.9307 82.697L63.3038 83.9835L63.6769 82.697C66.277 73.487 71.1957 65.0977 77.9629 58.3307C84.7301 51.5637 93.1197 46.6451 102.33 44.045L103.616 43.6719L102.33 43.2989C93.1197 40.6987 84.7301 35.7802 77.9629 29.0132C71.1957 22.2462 66.277 13.8568 63.6769 4.64684L63.3231 3.34751L62.95 4.63398C60.3498 13.844 55.4311 22.2333 48.6639 29.0003C41.8967 35.7673 33.5072 40.6859 24.2969 43.286L22.9911 43.6719Z" fill="black" fill-opacity="0.04"/>
</svg>
